HIERARCHY
ROOT Hips
{
	OFFSET 0.00000 0.00000 0.00000
	CHANNELS 6 Xposition Yposition Zposition Zrotation Yrotation Xrotation 
	JOINT LHipJoint
	{
		OFFSET 0 0 0
		CHANNELS 3 Zrotation Yrotation Xrotation
		JOINT LeftUpLeg
		{
			OFFSET 1.75344 -1.53157 0.77399
			CHANNELS 3 Zrotation Yrotation Xrotation
			JOINT LeftLeg
			{
				OFFSET 2.25415 -6.19323 0.00000
				CHANNELS 3 Zrotation Yrotation Xrotation
				JOINT LeftFoot
				{
					OFFSET 2.30342 -6.32861 0.00000
					CHANNELS 3 Zrotation Yrotation Xrotation
					JOINT LeftToeBase
					{
						OFFSET 0.10958 -0.30108 1.49206
						CHANNELS 3 Zrotation Yrotation Xrotation
						End Site
						{
							OFFSET 0.00000 -0.00000 0.77783
						}
					}
				}
			}
		}
	}
	JOINT RHipJoint
	{
		OFFSET 0 0 0
		CHANNELS 3 Zrotation Yrotation Xrotation
		JOINT RightUpLeg
		{
			OFFSET -1.81912 -1.53156 0.77399
			CHANNELS 3 Zrotation Yrotation Xrotation
			JOINT RightLeg
			{
				OFFSET -2.22882 -6.12365 0.00000
				CHANNELS 3 Zrotation Yrotation Xrotation
				JOINT RightFoot
				{
					OFFSET -2.21943 -6.09785 0.00000
					CHANNELS 3 Zrotation Yrotation Xrotation
					JOINT RightToeBase
					{
						OFFSET -0.18931 -0.52012 1.59379
						CHANNELS 3 Zrotation Yrotation Xrotation
						End Site
						{
							OFFSET -0.00000 -0.00000 0.84686
						}
					}
				}
			}
		}
	}
	JOINT LowerBack
	{
		OFFSET 0 0 0
		CHANNELS 3 Zrotation Yrotation Xrotation
		JOINT Spine
		{
			OFFSET -0.00200 1.66634 -0.14248
			CHANNELS 3 Zrotation Yrotation Xrotation
			JOINT Spine1
			{
				OFFSET -0.00875 1.64542 0.09514
				CHANNELS 3 Zrotation Yrotation Xrotation
				JOINT Neck
				{
					OFFSET 0 0 0
					CHANNELS 3 Zrotation Yrotation Xrotation
					JOINT Neck1
					{
						OFFSET 0.02257 1.59605 0.00839
						CHANNELS 3 Zrotation Yrotation Xrotation
						JOINT Head
						{
							OFFSET -0.10214 1.57530 -0.23335
							CHANNELS 3 Zrotation Yrotation Xrotation
							End Site
							{
								OFFSET -0.03588 1.60717 -0.08062
							}
						}
					}
				}
				JOINT LeftShoulder
				{
					OFFSET 0 0 0
					CHANNELS 3 Zrotation Yrotation Xrotation
					JOINT LeftArm
					{
						OFFSET 2.54983 1.10186 0.40078
						CHANNELS 3 Zrotation Yrotation Xrotation
						JOINT LeftForeArm
						{
							OFFSET 4.28840 -0.00000 0.00000
							CHANNELS 3 Zrotation Yrotation Xrotation
							JOINT LeftHand
							{
								OFFSET 3.06552 -0.00000 -0.00000
								CHANNELS 3 Zrotation Yrotation Xrotation
								JOINT LeftFingerBase
								{
									OFFSET 0 0 0
									CHANNELS 3 Zrotation Yrotation Xrotation
									JOINT LeftHandIndex1
									{
										OFFSET 0.75304 -0.00000 0.00000
										CHANNELS 3 Zrotation Yrotation Xrotation
										End Site
										{
											OFFSET 0.60712 -0.00000 0.00000
										}
									}
								}
								JOINT LThumb
								{
									OFFSET 0 0 0
									CHANNELS 3 Zrotation Yrotation Xrotation
									End Site
									{
										OFFSET 0.61639 -0.00000 0.61639
									}
								}
							}
						}
					}
				}
				JOINT RightShoulder
				{
					OFFSET 0 0 0
					CHANNELS 3 Zrotation Yrotation Xrotation
					JOINT RightArm
					{
						OFFSET -2.60909 1.35448 0.21802
						CHANNELS 3 Zrotation Yrotation Xrotation
						JOINT RightForeArm
						{
							OFFSET -4.52172 -0.00000 -0.00000
							CHANNELS 3 Zrotation Yrotation Xrotation
							JOINT RightHand
							{
								OFFSET -2.89140 -0.00000 0.00000
								CHANNELS 3 Zrotation Yrotation Xrotation
								JOINT RightFingerBase
								{
									OFFSET 0 0 0
									CHANNELS 3 Zrotation Yrotation Xrotation
									JOINT RightHandIndex1
									{
										OFFSET -0.68054 -0.00000 0.00000
										CHANNELS 3 Zrotation Yrotation Xrotation
										End Site
										{
											OFFSET -0.54867 -0.00000 0.00000
										}
									}
								}
								JOINT RThumb
								{
									OFFSET 0 0 0
									CHANNELS 3 Zrotation Yrotation Xrotation
									End Site
									{
										OFFSET -0.55705 -0.00000 0.55705
									}
								}
							}
						}
					}
				}
			}
		}
	}
}
MOTION
Frames: 9
Frame Time: .0083333
8.5773 15.1253 41.543 0 0 0 0 0 0 -21 0 0 0 0 0 0 0 0 0 0 0 0 0 0 21 0 0 0 0 0 0 0 0 0 0 0 0 0 0 0 0 0 0 0 0 0 0 -16 0 0 21 0 0 11 0 0 0 -8 0 0 0 0 0 0 0 0 0 0 0 0 0 0 0 0 0 0 0 0 8 0 0 0 0 0 0 0 0 0 0 0 0 0 0 0 0 0
8.5773 15.1253 41.5430 -179.0510 -16.3462 -178.9560 0.0000 0.0000 0.0000 -25.8339 -27.4139 -0.1747 2.6958 10.1855 29.5797 1.7721 4.3218 -27.0053 4.3106 -12.5626 -37.7525 0.0000 0.0000 0.0000 27.8822 17.4274 3.8603 -1.9532 -8.7678 25.0717 -0.3734 -25.0045 -37.1670 -0.3030 -3.5390 9.7830 1.7640 2.6233 5.1267 0.0558 3.5905 -4.2429 -1.3264 1.6425 -7.2060 6.8595 17.1917 -0.9322 -4.9945 23.0038 3.1517 -1.8310 11.4654 2.6320 -0.0000 -0.0000 0.0000 -86.1743 10.2489 34.5241 18.3985 -28.6644 -4.7389 -0.0000 -0.0000 17.5366 12.0936 -38.8470 -7.6544 -7.1250 0.0000 -0.0000 -11.7733 -8.7640 13.7003 -0.0000 -0.0000 0.0000 83.0488 -15.4262 54.0577 -17.7314 27.8119 -4.4232 0.0000 0.0000 18.5693 -12.0324 -52.2984 9.5725 7.1250 -0.0000 -0.0000 64.1562 -75.5186 -50.0683
8.5734 15.1230 41.5391 -179.0600 -16.2934 -178.9900 0.0000 0.0000 0.0000 -25.9092 -27.4539 -0.0739 2.6990 10.1911 29.5978 1.8109 4.0841 -27.1551 3.9897 -12.1466 -36.2527 0.0000 0.0000 0.0000 27.8959 17.5089 3.9668 -1.9497 -8.7605 25.0491 -0.3529 -25.0812 -37.1571 -0.3316 -3.7007 10.2361 1.7999 2.6665 5.1007 0.0163 3.6494 -4.2069 -1.3914 1.6705 -7.1457 6.9049 17.1629 -0.9531 -5.0253 22.9636 3.1130 -1.8482 11.4453 2.6302 0.0000 0.0000 0.0000 -86.1133 10.1740 34.8780 19.0974 -29.5395 -5.0788 -0.0000 -0.0000 14.5923 4.4357 -35.6762 -2.5903 -7.1250 0.0000 -0.0000 -15.5048 -4.6392 17.3330 0.0000 0.0000 0.0000 83.1334 -15.4388 53.9758 -17.7745 27.8675 -4.4433 0.0000 0.0000 18.4768 -12.2701 -52.7051 9.8160 7.1250 -0.0000 -0.0000 65.5672 -75.7427 -51.5835
8.5574 15.1321 41.5534 -178.9830 -15.5514 -178.7120 0.0000 0.0000 0.0000 -25.8268 -27.5668 -0.3911 2.7020 10.1963 29.6146 1.7694 4.7966 -27.2299 4.0240 -12.1923 -36.4156 0.0000 0.0000 0.0000 27.4707 17.3899 3.2693 -1.9474 -8.7557 25.0340 -0.2921 -24.5155 -36.1151 -0.2779 -3.3909 9.3689 2.1679 2.9160 5.0726 -0.0648 4.0037 -4.3534 -1.7214 1.8175 -7.2440 6.8281 17.1588 -0.7380 -4.9538 22.9607 2.8863 -1.8514 11.4497 2.4956 -0.0000 -0.0000 0.0000 -86.0213 10.3282 35.3693 19.5112 -30.0489 -5.2844 -0.0000 -0.0000 13.5243 2.5427 -33.5009 -1.4041 -7.1250 0.0000 -0.0000 -16.4308 -2.3595 17.8308 -0.0000 -0.0000 0.0000 83.1862 -15.4983 54.0261 -17.9586 28.1041 -4.5297 0.0000 0.0000 17.8195 -11.6418 -53.0764 9.3532 7.1250 -0.0000 -0.0000 67.2517 -75.6144 -52.9794
8.5548 15.1320 41.5565 -178.8970 -15.4570 -178.6890 0.0000 0.0000 0.0000 -25.6961 -27.4742 -0.5314 2.7042 10.2001 29.6270 1.7228 5.1484 -27.0932 4.3067 -12.5578 -37.7349 0.0000 0.0000 0.0000 27.4683 17.2891 3.1304 -1.9480 -8.7570 25.0381 -0.2965 -24.3517 -35.9293 -0.2584 -3.2708 9.0335 2.2826 2.9206 5.1083 -0.0503 4.0205 -4.3862 -1.7750 1.8182 -7.2926 6.7453 17.1991 -0.6293 -4.8776 23.0149 2.7791 -1.8320 11.4797 2.4222 0.0000 -0.0000 0.0000 -85.9800 10.4455 34.8314 18.8777 -29.2664 -4.9709 -0.0000 -0.0000 15.4309 6.6727 -36.7688 -4.0058 -7.1250 0.0000 -0.0000 -14.3936 -5.9563 16.3086 0.0000 -0.0000 0.0000 83.1592 -15.5300 53.6736 -17.6381 27.6913 -4.3798 0.0000 0.0000 19.0016 -12.5175 -51.2989 9.8298 7.1250 -0.0000 -0.0000 60.2547 -75.3339 -46.4076
8.5541 15.1297 41.5548 -178.8730 -15.5208 -178.6820 0.0000 0.0000 0.0000 -25.6394 -27.3865 -0.6053 2.6984 10.1900 29.5941 1.6965 5.2912 -26.9868 4.4684 -12.7589 -38.4724 0.0000 0.0000 0.0000 27.4785 17.1728 3.0572 -1.9558 -8.7735 25.0892 -0.3004 -24.3293 -35.9220 -0.2384 -3.1426 8.6759 2.2773 2.8897 5.0930 -0.0347 3.9794 -4.3764 -1.7501 1.7992 -7.2765 6.7881 17.2196 -0.6927 -4.8908 23.0421 2.8824 -1.8275 11.4918 2.4771 -0.0000 0.0000 0.0000 -85.9883 10.4499 33.1982 17.2102 -27.1340 -4.1827 -0.0000 -0.0000 21.4617 18.5949 -42.3529 -12.7707 -7.1250 0.0000 -0.0000 -9.0428 -13.4300 11.0159 -0.0000 0.0000 0.0000 83.1662 -15.4854 53.5870 -17.6920 27.7610 -4.4048 0.0000 0.0000 18.7432 -12.2306 -51.4291 9.6189 7.1250 -0.0000 -0.0000 60.8895 -75.2755 -46.9045
8.5508 15.1296 41.5556 -178.9360 -15.4602 -178.6910 0.0000 0.0000 0.0000 -25.7527 -27.3731 -0.5603 2.6951 10.1844 29.5759 1.6682 5.5255 -26.9172 4.5913 -12.9083 -39.0261 0.0000 0.0000 0.0000 27.3506 17.0737 2.9817 -1.9608 -8.7840 25.1220 -0.3009 -24.2346 -35.8040 -0.2202 -3.0208 8.3366 2.2699 2.9092 5.1713 -0.0647 4.0066 -4.3626 -1.7845 1.8123 -7.3044 6.7732 17.2298 -0.7620 -4.8213 23.0519 2.9683 -1.7938 11.4963 2.5069 0.0000 0.0000 0.0000 -85.9765 10.4226 33.2024 17.1502 -27.0553 -4.1554 -0.0000 -0.0000 21.5511 19.5664 -42.0805 -13.3979 -7.1250 0.0000 -0.0000 -8.5123 -13.3791 10.3509 0.0000 0.0000 0.0000 83.2064 -15.3960 53.4399 -17.6401 27.6938 -4.3807 0.0000 0.0000 18.5409 -12.0523 -51.0569 9.4286 7.1250 -0.0000 -0.0000 59.6888 -75.0567 -45.6234
8.5470 15.1357 41.5577 -179.0110 -15.2469 -178.5620 0.0000 0.0000 0.0000 -25.8144 -27.4129 -0.6273 2.6901 10.1757 29.5476 1.6681 5.5780 -26.9458 4.4897 -12.7850 -38.5690 0.0000 0.0000 0.0000 27.1257 17.0282 2.7461 -1.9643 -8.7914 25.1450 -0.3185 -23.9746 -35.5697 -0.2139 -2.9773 8.2156 2.2576 2.9775 5.1416 -0.1122 4.0918 -4.4036 -1.8359 1.8519 -7.3247 6.8299 17.2203 -0.6961 -4.8672 23.0425 2.9272 -1.8230 11.4928 2.4950 -0.0000 0.0000 0.0000 -85.9421 10.4467 33.3063 17.1912 -27.1091 -4.1741 -0.0000 -0.0000 21.2206 19.1714 -41.6957 -13.0217 -7.1250 0.0000 -0.0000 -8.6333 -12.9148 10.4491 -0.0000 0.0000 0.0000 83.1710 -15.4408 53.7039 -17.6934 27.7628 -4.4055 0.0000 0.0000 18.5190 -12.3914 -51.8648 9.8046 7.1250 -0.0000 -0.0000 62.3721 -75.5031 -48.4565
8.5507 15.1351 41.5505 -178.9450 -15.5897 -178.7240 0.0000 0.0000 0.0000 -25.7660 -27.4156 -0.4254 2.6870 10.1703 29.5299 1.7226 4.9961 -27.0097 4.2870 -12.5328 -37.6437 0.0000 0.0000 0.0000 27.3947 16.9820 3.0389 -1.9677 -8.7985 25.1671 -0.3508 -24.1840 -36.0120 -0.2353 -3.1220 8.6186 2.2460 2.8569 5.1501 -0.0766 3.9339 -4.3331 -1.7736 1.7792 -7.2642 6.9278 17.1809 -0.6092 -5.0441 22.9977 2.8303 -1.9023 11.4702 2.4825 -0.0000 -0.0000 0.0000 -85.9043 10.6101 35.2607 19.0976 -29.5397 -5.0789 -0.0000 -0.0000 14.6503 7.5497 -36.0185 -4.4564 -7.1250 0.0000 -0.0000 -13.8761 -5.3451 15.5529 -0.0000 -0.0000 0.0000 83.1533 -15.5018 53.8482 -17.8014 27.9021 -4.4559 0.0000 0.0000 18.5421 -12.2974 -52.4248 9.8021 7.1250 -0.0000 -0.0000 64.4961 -75.6627 -50.5287
